<?xml version="1.0" encoding="UTF-8"?>
<svg width="144px" height="78px" viewBox="0 0 144 78" version="1.1" xmlns="http://www.w3.org/2000/svg" xmlns:xlink="http://www.w3.org/1999/xlink">
    <!-- Generator: Sketch 49.1 (51147) - http://www.bohemiancoding.com/sketch -->
    <title>praxi-full-logo</title>
    <desc>Created with Sketch.</desc>
    <defs></defs>
    <g id="style-guide-+-logos" stroke="none" stroke-width="1" fill="none" fill-rule="evenodd">
        <g id="logos" transform="translate(-2.000000, -61.000000)">
            <g id="praxi-full-logo" transform="translate(3.000000, 43.000000)">
                <text id="raxi" font-family="Nunito-Regular, Nunito" font-size="60" font-weight="normal" letter-spacing="2.14285731" fill="#1BBBC4">
                    <tspan x="42" y="61">raxi</tspan>
                </text>
                <g id="circles" transform="translate(0.000000, 26.000000)" fill-rule="nonzero">
                    <path d="M6.69,15.3711111 C7.15,15.3711111 7.52333333,14.9977778 7.52333333,14.5377778 C7.52333333,7.64555556 13.1311111,2.03777778 20.0233333,2.03777778 C26.9155556,2.03777778 32.5233333,7.64555556 32.5233333,14.5377778 L32.5233333,21.4888889 L28.6327778,17.5705556 C28.3088889,17.2433333 27.7805556,17.2422222 27.4544444,17.5661111 C27.1277778,17.8905556 27.1255556,18.4177778 27.45,18.7444444 L32.745,24.0777778 C32.9077778,24.2422222 33.1222222,24.3238889 33.3361111,24.3238889 C33.5483333,24.3238889 33.7605556,24.2427778 33.9233333,24.0816667 L39.2577778,18.7877778 C39.5844444,18.4638889 39.5866667,17.9361111 39.2622222,17.6094444 C38.9383333,17.2822222 38.4111111,17.28 38.0838889,17.605 L34.19,21.4694444 L34.19,14.5088889 C34.19,14.5055556 34.1888889,14.5022222 34.1888889,14.4988889 C34.1683333,6.70555556 27.8216667,0.371111111 20.0233333,0.371111111 C12.2116667,0.371111111 5.85666667,6.72611111 5.85666667,14.5377778 C5.85666667,14.9977778 6.23,15.3711111 6.69,15.3711111 Z" id="Shape" stroke="#1BBBC4" fill="#1BBBC4"></path>
                    <path d="M1.91611111,23.5061111 L5.80944444,19.6422222 L5.80944444,26.6022222 C5.80944444,26.6055556 5.81055556,26.6088889 5.81055556,26.6122222 C5.83111111,34.4055556 12.1777778,40.74 19.9761111,40.74 C27.7877778,40.74 34.1427778,34.385 34.1427778,26.5733333 C34.1427778,26.1133333 33.7694444,25.74 33.3094444,25.74 C32.8494444,25.74 32.4761111,26.1133333 32.4761111,26.5733333 C32.4761111,33.4655556 26.8683333,39.0733333 19.9761111,39.0733333 C13.0838889,39.0733333 7.47611111,33.4655556 7.47611111,26.5733333 L7.47611111,19.6216667 L11.3672222,23.5405556 C11.53,23.705 11.7444444,23.7866667 11.9583333,23.7866667 C12.1705556,23.7866667 12.3833333,23.7055556 12.5455556,23.5444444 C12.8722222,23.22 12.8744444,22.6927778 12.55,22.3661111 L7.255,17.0327778 C6.93111111,16.7055556 6.40388889,16.7044444 6.07666667,17.0283333 L0.742222222,22.3222222 C0.415555556,22.6461111 0.413333333,23.1738889 0.737777778,23.5005556 C1.06166667,23.8283333 1.58888889,23.8311111 1.91611111,23.5061111 Z" id="Shape" stroke="#FF008E" fill="#FF008E"></path>
                </g>
                <path d="M6.5,28.5 L6.5,93.5" id="Line" stroke="#1BBBC4" stroke-width="4" stroke-linecap="round"></path>
                <circle id="Oval" fill="#FF008E" cx="139" cy="22" r="4"></circle>
            </g>
        </g>
    </g>
</svg>